<?xml version="1.0" encoding="UTF-8"?>
<svg width="32" height="32" viewBox="0 0 149 40" fill="none" xmlns="http://www.w3.org/2000/svg">
  <path d="M123.952 20.021v-.29h-.002c-.02-1.425-.169-5.21-1.139-8.294-.618-1.964-1.558-1.109-1.853-.712-.248.333-2.571 3.542-4.436 4.895-1.552 1.125-4.097 2.215-6.962 2.852-.015-3.067-.123-9.496-.743-11.68 0 0-.128-.641-.408-1.014-.244-.324-.698-.476-1.093.103-.311.457-3.935 6.05-6.54 8.191-1.371 1.128-2.502 1.866-3.392 2.146-.053-4.317-.251-10.973-.951-13.448 0 0-.166-.833-.533-1.318-.318-.42-.91-.62-1.423.133-.405.596-5.119 7.872-8.51 10.66-2.954 2.43-5.053 3.482-6.293 2.702-.856-.538-1.147-1.47-1.235-2.946 0 0-.359-5.886-.391-6.457-.031-.57-.127-2.217-.571-3.517-.15-.44-.338-.75-.54-.963C76.712.796 75.955 0 74.477 0c-1.593 0-2.278.834-2.519 1.124l-.003.007c-.178.21-.343.498-.48.895-.444 1.298-.538 2.946-.57 3.517s-.392 6.456-.392 6.456c-.088 1.477-.379 2.408-1.234 2.946-1.24.78-3.34-.271-6.294-2.702-3.39-2.787-8.105-10.065-8.51-10.66-.514-.753-1.105-.553-1.423-.133-.365.487-.532 1.319-.532 1.319-.7 2.475-.899 9.13-.952 13.447-.891-.279-2.022-1.016-3.392-2.145-2.605-2.142-6.23-7.734-6.54-8.192-.395-.579-.849-.425-1.093-.102-.282.374-.408 1.012-.408 1.012-.62 2.185-.728 8.614-.743 11.682-2.865-.638-5.41-1.727-6.962-2.853-1.864-1.351-4.188-4.562-4.436-4.895-.295-.396-1.235-1.252-1.853.712-.97 3.086-1.117 6.873-1.138 8.296H25v.58h.002c.02 1.425.169 5.21 1.139 8.295.618 1.964 1.558 1.108 1.853.712.248-.333 2.57-3.542 4.436-4.895 1.552-1.126 4.097-2.215 6.962-2.852.015 3.067.124 9.496.743 11.682 0 0 .128.64.408 1.013.244.323.7.477 1.093-.102.31-.458 3.935-6.05 6.54-8.192 1.372-1.127 2.502-1.867 3.392-2.145.053 4.316.251 10.972.952 13.447 0 0 .165.834.532 1.319.318.421.91.62 1.423-.134.405-.596 5.12-7.872 8.51-10.66 2.954-2.43 5.054-3.482 6.294-2.701.855.538 1.146 1.469 1.234 2.946 0 0 .36 5.886.392 6.456s.126 2.217.57 3.517a2.8 2.8 0 0 0 .448.86l.018.021.017.02c.27.322.995 1.084 2.516 1.084 1.386 0 2.144-.678 2.42-.979.218-.215.42-.535.581-1.004.444-1.298.538-2.947.57-3.517.033-.57.392-6.456.392-6.456.089-1.478.38-2.409 1.235-2.947 1.24-.78 3.339.274 6.294 2.702 3.389 2.788 8.104 10.066 8.51 10.66.513.753 1.104.555 1.422.133.365-.486.533-1.318.533-1.318.702-2.475.898-9.131.951-13.448.892.279 2.022 1.017 3.392 2.146 2.605 2.142 6.229 7.734 6.54 8.191.395.58.849.426 1.093.103.282-.374.409-1.013.409-1.013.62-2.186.727-8.614.743-11.683 2.864.637 5.409 1.727 6.962 2.853 1.863 1.35 4.186 4.562 4.435 4.895.296.396 1.235 1.252 1.853-.712.971-3.085 1.119-6.87 1.14-8.295h.001s.002-.104 0-.29" fill="#000000"/>
</svg>